<?xml version="1.0" encoding="iso-8859-1"?>
<!-- Generator: Adobe Illustrator 19.0.0, SVG Export Plug-In . SVG Version: 6.00 Build 0)  -->
<svg version="1.1" id="Layer_1" xmlns="http://www.w3.org/2000/svg" xmlns:xlink="http://www.w3.org/1999/xlink" x="0px" y="0px"
	 viewBox="0 0 508.609 508.609" style="enable-background:new 0 0 508.609 508.609;" xml:space="preserve">
<g>
	<circle style="fill:#EEB490;" cx="141.563" cy="192.254" r="40.689"/>
	<circle style="fill:#EEB490;" cx="353.823" cy="192.254" r="40.689"/>
</g>
<path style="fill:#9D90C5;" d="M462.665,508.609H33.06v-76.63c0-35.603,29.16-54.93,62.05-70.188
	c23.057-10.85,94.601-37.637,94.601-37.637h115.963c0,0,71.544,27.126,94.601,37.637c32.551,14.919,62.05,34.585,62.05,70.188v76.63
	H462.665z"/>
<path style="fill:#EEB490;" d="M194.119,294.993v56.964c0,29.499,24.074,53.574,53.574,53.574l0,0
	c29.499,0,53.574-24.074,53.574-53.574v-56.964H194.119z"/>
<path style="fill:#FACCB4;" d="M301.944,83.751H193.78c-25.43,0-45.775,20.683-45.775,45.775v103.078
	c0,55.269,44.758,100.026,100.026,100.026l0,0c55.269,0,100.026-44.758,100.026-100.026V129.526
	C347.719,104.434,327.036,83.751,301.944,83.751z"/>
<g>
	<path style="fill:#56545F;" d="M148.005,178.013L148.005,178.013V96.636h34.246v46.792
		C182.252,162.416,166.993,178.013,148.005,178.013z"/>
	<path style="fill:#56545F;" d="M347.719,178.013L347.719,178.013V96.636h-34.246v46.792
		C313.473,162.416,328.731,178.013,347.719,178.013z"/>
</g>
<path style="fill:#1B9ED6;" d="M452.493,67.815h-98.67C335.513,27.804,295.163,0,248.032,0C184.625,0,133.086,50.861,131.73,113.928
	h320.763c12.546,0,23.057-10.172,23.057-23.057C475.211,78.326,465.038,67.815,452.493,67.815z"/>
<g>
</g>
<g>
</g>
<g>
</g>
<g>
</g>
<g>
</g>
<g>
</g>
<g>
</g>
<g>
</g>
<g>
</g>
<g>
</g>
<g>
</g>
<g>
</g>
<g>
</g>
<g>
</g>
<g>
</g>
</svg>
